<?xml version="1.0" standalone="no"?>
<!DOCTYPE svg PUBLIC "-//W3C//DTD SVG 20010904//EN"
 "http://www.w3.org/TR/2001/REC-SVG-20010904/DTD/svg10.dtd">
<svg version="1.0" xmlns="http://www.w3.org/2000/svg"
 width="2000.000000pt" height="1919.000000pt" viewBox="0 0 2000.000000 1919.000000"
 preserveAspectRatio="xMidYMid meet">

<g transform="translate(0.000000,1919.000000) scale(0.100000,-0.100000)"
fill="#000000" stroke="none">
<path d="M9715 18429 c-712 -23 -1420 -136 -2085 -331 -74 -22 -148 -44 -165
-48 -59 -16 -363 -120 -425 -145 -19 -7 -66 -26 -105 -40 -38 -15 -84 -33
-102 -41 -17 -8 -34 -14 -38 -14 -4 0 -35 -12 -69 -26 -268 -113 -748 -346
-907 -441 -239 -142 -347 -206 -364 -216 -11 -7 -36 -24 -55 -38 -19 -14 -70
-47 -114 -73 -43 -26 -84 -53 -91 -60 -7 -6 -43 -32 -81 -56 -38 -25 -75 -51
-84 -58 -8 -7 -64 -49 -125 -94 -136 -101 -195 -147 -344 -268 -145 -118 -144
-117 -190 -160 -20 -19 -65 -60 -100 -90 -76 -66 -533 -524 -611 -611 -30 -34
-71 -79 -90 -99 -19 -21 -42 -46 -50 -56 -8 -11 -58 -71 -110 -135 -113 -139
-160 -198 -269 -344 -45 -60 -88 -117 -94 -125 -7 -9 -34 -49 -61 -89 -27 -41
-53 -79 -58 -85 -19 -21 -178 -272 -254 -401 -42 -71 -87 -147 -101 -168 -13
-20 -53 -95 -90 -165 -36 -70 -78 -149 -93 -177 -16 -27 -74 -149 -130 -270
-128 -277 -130 -281 -130 -292 0 -4 -7 -21 -16 -38 -22 -43 -43 -95 -129 -330
-91 -246 -182 -529 -241 -750 -64 -239 -156 -686 -193 -935 -48 -328 -75 -630
-91 -1020 -6 -146 -17 -377 -25 -515 -44 -770 -23 -1305 81 -1990 28 -187 73
-426 104 -550 10 -44 38 -155 60 -248 39 -162 90 -337 151 -522 16 -49 34
-106 40 -125 22 -72 119 -328 189 -497 10 -27 33 -82 50 -123 17 -41 43 -102
59 -135 16 -33 50 -105 76 -160 25 -55 53 -113 62 -130 8 -16 48 -93 87 -170
98 -188 251 -452 368 -630 35 -55 78 -121 94 -146 55 -87 191 -280 269 -378
17 -21 55 -71 85 -111 86 -113 300 -373 320 -390 11 -8 33 -33 50 -55 39 -50
223 -247 270 -289 19 -17 56 -53 82 -81 53 -58 46 -51 159 -158 47 -45 112
-104 145 -132 32 -27 72 -64 89 -81 29 -30 237 -201 352 -289 179 -138 335
-255 397 -297 39 -26 89 -60 111 -75 210 -141 607 -381 730 -441 17 -8 59 -29
95 -48 136 -72 531 -260 620 -295 25 -9 70 -27 100 -38 30 -12 64 -25 75 -30
23 -10 123 -49 215 -84 36 -14 103 -37 150 -52 47 -15 94 -31 105 -35 30 -12
116 -41 150 -50 17 -4 77 -22 135 -40 58 -17 146 -42 195 -55 50 -13 99 -26
110 -29 164 -44 537 -119 765 -155 275 -43 547 -72 855 -91 207 -13 772 -13
990 0 344 20 758 69 1020 120 28 6 100 20 160 31 263 50 423 89 725 176 168
49 606 195 665 223 11 5 61 25 112 44 50 20 106 42 125 50 18 8 62 26 98 41
65 27 139 61 300 137 96 45 95 45 285 143 342 177 778 449 1100 688 72 53 148
112 170 131 22 19 58 47 80 62 22 14 42 30 45 33 3 4 57 49 120 101 63 52 129
108 146 124 17 17 46 44 65 59 58 49 241 220 278 262 44 48 86 90 131 132 39
35 90 85 105 103 6 7 24 26 41 44 17 17 61 67 99 111 38 43 78 88 90 100 12
11 62 70 110 130 49 61 96 117 106 125 9 8 28 33 42 55 15 22 51 72 82 110 30
39 63 81 72 95 10 14 40 54 68 90 28 36 72 97 98 135 25 39 53 79 60 90 116
165 408 654 466 777 17 37 45 91 62 120 34 56 189 382 219 458 10 25 29 72 43
105 61 147 120 293 132 330 7 22 25 72 40 110 89 236 211 644 271 910 9 39 20
86 24 105 124 538 180 1007 210 1745 6 132 17 353 25 490 42 720 0 1431 -126
2125 -36 196 -41 220 -119 545 -53 219 -166 590 -245 800 -15 39 -31 84 -37
100 -17 48 -94 243 -133 335 -20 47 -40 97 -45 111 -4 15 -21 53 -38 85 -16
33 -48 100 -72 149 -170 361 -413 787 -627 1100 -7 11 -25 38 -40 60 -22 34
-99 140 -158 220 -177 236 -270 358 -306 396 -16 17 -52 59 -80 93 -221 268
-679 728 -951 952 -25 22 -84 71 -130 109 -96 81 -129 107 -253 199 -49 37
-101 76 -115 86 -104 79 -243 174 -455 312 -142 93 -410 250 -545 320 -63 33
-142 75 -175 93 -33 18 -150 74 -260 125 -110 50 -218 100 -241 111 -23 10
-45 19 -49 19 -4 0 -26 9 -49 20 -23 10 -72 31 -111 46 -38 14 -99 37 -135 51
-36 13 -74 28 -85 33 -23 11 -82 31 -175 62 -36 11 -96 32 -135 46 -38 13 -83
28 -100 32 -16 4 -77 22 -135 40 -109 33 -252 71 -355 95 -33 8 -109 26 -170
40 -324 76 -777 146 -1164 180 -157 14 -695 37 -781 33 -19 -1 -134 -5 -255
-9z m596 -1979 c475 -24 1047 -102 1389 -190 19 -5 89 -23 155 -39 161 -42
359 -99 421 -123 28 -10 73 -25 100 -33 55 -15 218 -73 279 -99 22 -10 60 -24
85 -33 51 -17 137 -54 295 -126 61 -27 139 -63 175 -78 36 -16 72 -33 80 -38
8 -6 71 -38 140 -73 69 -34 157 -81 195 -104 39 -23 122 -72 185 -108 63 -37
135 -80 160 -97 25 -16 58 -37 73 -47 16 -9 56 -35 89 -57 34 -22 68 -44 76
-50 9 -5 37 -26 63 -45 26 -19 63 -45 81 -58 99 -69 151 -108 286 -214 79 -62
239 -199 320 -273 42 -39 100 -89 127 -110 64 -51 318 -305 370 -370 21 -27
73 -87 115 -132 135 -146 351 -411 438 -538 23 -33 60 -85 82 -115 22 -30 70
-100 106 -155 37 -55 89 -133 115 -172 27 -40 58 -90 69 -110 11 -21 29 -51
39 -68 83 -135 265 -482 356 -680 117 -254 253 -594 296 -745 6 -19 21 -64 34
-100 53 -148 154 -530 201 -758 62 -306 109 -634 135 -942 26 -301 12 -731
-30 -910 -5 -19 -14 -69 -21 -110 -11 -65 -66 -334 -90 -440 -8 -37 -57 -220
-90 -335 -11 -38 -27 -92 -34 -120 -8 -27 -24 -79 -37 -115 -69 -200 -84 -243
-114 -320 -18 -47 -42 -110 -54 -142 -11 -31 -29 -76 -40 -100 -11 -23 -51
-113 -89 -198 -77 -171 -265 -546 -286 -570 -8 -8 -26 -40 -41 -70 -25 -49
-46 -86 -130 -220 -40 -66 -92 -145 -131 -203 -21 -32 -46 -68 -54 -81 -17
-26 -78 -112 -118 -167 -15 -20 -47 -65 -71 -100 -41 -59 -69 -94 -203 -257
-77 -92 -112 -132 -185 -212 -38 -41 -91 -102 -118 -135 -77 -94 -283 -301
-360 -363 -38 -31 -104 -88 -146 -127 -106 -98 -226 -200 -324 -275 -26 -19
-56 -44 -68 -56 -12 -11 -51 -41 -85 -65 -35 -24 -76 -53 -92 -64 -126 -91
-156 -112 -175 -125 -123 -82 -170 -113 -295 -192 -72 -46 -250 -148 -258
-148 -3 0 -13 -6 -21 -14 -46 -41 -609 -312 -831 -401 -52 -20 -117 -47 -145
-58 -58 -24 -399 -142 -465 -161 -515 -151 -902 -231 -1385 -285 -480 -55
-1060 -63 -1480 -21 -340 35 -668 83 -935 139 -93 20 -417 102 -535 136 -33
10 -80 24 -105 31 -79 23 -393 132 -445 154 -27 12 -79 32 -115 45 -189 66
-696 312 -969 469 -101 58 -191 112 -201 121 -9 8 -20 15 -25 15 -4 0 -29 15
-55 34 -27 19 -65 44 -87 55 -21 12 -63 39 -93 61 -30 22 -80 57 -110 77 -30
20 -75 53 -100 73 -25 19 -65 49 -90 65 -45 29 -152 116 -241 194 -25 23 -50
41 -54 41 -8 0 -78 61 -180 158 -33 32 -80 73 -105 92 -69 52 -346 327 -398
395 -25 33 -75 90 -112 127 -36 37 -85 92 -110 123 -25 30 -64 79 -88 108
-106 130 -169 209 -192 242 -14 20 -41 57 -60 83 -19 26 -51 70 -70 98 -201
295 -230 338 -285 434 -14 25 -34 59 -45 75 -60 95 -245 447 -338 645 -54 115
-143 321 -206 480 -38 94 -142 400 -171 500 -14 47 -31 108 -39 135 -19 64
-95 358 -106 410 -40 194 -54 269 -75 395 -12 80 -28 183 -34 230 -7 47 -16
117 -21 155 -49 367 -52 836 -6 1110 62 373 109 593 179 840 8 28 24 86 36
130 26 94 86 283 108 340 9 22 30 81 49 130 18 50 46 126 62 170 25 68 174
405 233 530 50 103 176 345 189 360 7 9 27 43 44 75 38 73 104 187 127 220 9
14 38 59 64 100 55 88 116 177 186 275 28 39 58 81 67 95 43 63 90 127 122
167 19 23 51 64 70 89 19 26 52 63 73 84 20 20 37 41 37 45 0 8 42 57 165 193
39 42 88 98 108 124 47 58 306 318 367 366 25 20 82 70 127 112 45 41 107 95
138 120 31 25 73 61 95 80 21 19 60 52 87 73 135 107 173 135 223 170 30 20
75 53 100 72 25 18 49 34 54 34 4 1 29 18 55 39 51 42 88 67 141 95 19 11 44
27 55 37 11 10 36 26 55 35 19 10 49 28 65 40 17 13 53 35 80 50 28 14 84 46
125 70 41 24 138 76 215 115 77 40 158 83 180 95 112 64 612 274 835 352 47
16 114 39 150 52 36 12 88 29 115 37 28 7 82 23 120 34 39 11 133 36 210 55
77 20 154 40 170 45 150 48 717 138 1075 170 305 28 670 35 981 20z"/>
<path d="M9240 14865 l0 -1125 165 0 165 0 2 418 3 417 415 6 c238 3 434 10
459 16 129 31 308 161 390 282 252 371 115 870 -290 1055 -122 55 -130 56
-743 56 l-566 0 0 -1125z m1179 760 c238 -132 285 -420 99 -604 -113 -112
-169 -123 -618 -119 l-325 3 -3 378 -2 378 397 -3 398 -3 54 -30z"/>
<path d="M10045 13987 c-18 -18 -38 -51 -44 -72 -8 -29 -11 -640 -11 -2116 l0
-2075 -23 -31 c-20 -27 -202 -216 -834 -865 -169 -174 -183 -190 -199 -244
-20 -70 -15 -161 14 -249 25 -78 144 -450 173 -540 26 -83 123 -387 149 -465
19 -57 114 -353 245 -765 42 -132 80 -251 85 -265 5 -14 42 -131 84 -260 41
-129 111 -350 156 -490 45 -140 88 -277 97 -303 15 -48 52 -100 82 -116 10 -6
35 -6 64 0 60 13 101 59 116 129 8 36 11 659 11 2142 l0 2091 107 111 c59 61
240 249 403 417 325 334 330 341 330 458 0 57 -16 123 -384 1581 -413 1640
-469 1857 -483 1888 -18 39 -58 72 -85 72 -11 0 -35 -15 -53 -33z"/>
<path d="M3951 10858 c-5 -13 -31 -79 -56 -148 -26 -69 -50 -134 -55 -145 -4
-11 -17 -45 -28 -75 -11 -30 -46 -122 -77 -205 -31 -82 -65 -172 -75 -200 -10
-27 -43 -115 -73 -195 -31 -80 -72 -190 -92 -245 -20 -55 -54 -145 -75 -200
-21 -55 -55 -145 -75 -200 -20 -55 -54 -145 -75 -200 -21 -55 -59 -156 -85
-225 -26 -69 -57 -152 -70 -185 -13 -33 -20 -63 -16 -68 4 -4 86 -6 181 -5
l174 3 44 115 c24 63 57 149 72 190 16 41 41 107 55 145 15 39 40 106 56 150
16 44 37 95 47 115 l17 35 365 3 c201 1 375 0 388 -3 12 -3 22 -12 22 -20 0
-9 4 -23 9 -33 6 -9 31 -73 57 -142 25 -69 77 -204 114 -300 37 -96 73 -193
81 -215 l15 -40 182 -3 c186 -3 192 -1 173 36 -5 9 -23 53 -39 97 -17 44 -51
136 -77 205 -26 69 -57 152 -70 185 -12 33 -46 123 -74 200 -29 77 -64 169
-78 205 -14 36 -41 108 -60 160 -19 52 -48 129 -63 170 -15 41 -56 149 -89
240 -34 91 -66 174 -71 185 -5 11 -39 101 -75 200 -37 99 -88 236 -115 305
l-48 125 -166 3 c-165 2 -166 2 -175 -20z m210 -579 c15 -41 41 -112 59 -159
17 -47 49 -134 70 -195 21 -60 47 -135 58 -165 11 -30 23 -65 27 -77 l6 -23
-256 0 c-240 0 -257 1 -252 18 9 29 98 277 172 477 20 55 44 124 53 153 9 28
21 51 27 49 5 -2 22 -37 36 -78z"/>
<path d="M16092 9433 l3 -1278 188 -3 187 -2 0 1280 0 1280 -190 0 -190 0 2
-1277z"/>
<path d="M9631 4965 c-149 -33 -240 -83 -352 -194 -71 -71 -93 -101 -126 -171
-56 -119 -76 -197 -75 -305 2 -385 301 -685 682 -686 100 0 150 9 290 57 10 3
118 -124 355 -420 187 -234 343 -425 347 -425 16 -2 209 162 205 173 -3 7
-152 196 -332 420 -179 224 -329 414 -331 421 -3 7 11 35 30 63 75 104 127
263 125 386 -2 199 -68 356 -206 493 -166 166 -393 235 -612 188z m260 -199
c163 -50 293 -177 341 -331 19 -63 25 -172 13 -240 -4 -22 -23 -74 -43 -115
-90 -190 -305 -305 -509 -271 -112 19 -194 60 -267 133 -78 79 -121 156 -143
254 -14 65 -15 89 -5 156 36 250 236 427 482 428 47 0 106 -6 131 -14z"/>
<path d="M9479 4580 c-92 -48 -172 -202 -155 -295 15 -79 93 -124 161 -92 33
16 65 68 65 106 0 35 22 69 60 95 133 88 11 261 -131 186z"/>
</g>
</svg>
